<svg width="253" height="32" viewBox="0 0 253 32" fill="none" xmlns="http://www.w3.org/2000/svg">
<path d="M0 29.2852C0 27.6445 0.109375 26.0176 0.328125 24.4043C0.546875 22.791 0.738281 21.1777 0.902344 19.5645C0.902344 19.4824 0.916016 19.3047 0.943359 19.0312C0.970703 18.7305 0.998047 18.416 1.02539 18.0879C1.08008 17.7598 1.12109 17.459 1.14844 17.1855C1.20312 16.8848 1.23047 16.6934 1.23047 16.6113V16.4473L2.95312 3.65039C2.89844 3.10352 2.98047 2.625 3.19922 2.21484C3.44531 1.77734 3.88281 1.55859 4.51172 1.55859C5.19531 1.47656 5.75586 1.57227 6.19336 1.8457C6.6582 2.0918 7.04102 2.41992 7.3418 2.83008C7.64258 3.24023 7.88867 3.69141 8.08008 4.18359C8.27148 4.67578 8.47656 5.12695 8.69531 5.53711C8.83203 5.91992 8.99609 6.37109 9.1875 6.89062C9.40625 7.41016 9.65234 8.06641 9.92578 8.85938C10.2266 9.65234 10.5684 10.623 10.9512 11.7715C11.3613 12.9199 11.8262 14.3145 12.3457 15.9551L12.5098 16.1191C12.7012 16.0098 13.0566 15.832 13.5762 15.5859C14.123 15.3398 14.6836 15.0801 15.2578 14.8066C15.8594 14.5332 16.4199 14.2734 16.9395 14.0273C17.459 13.7812 17.8281 13.6172 18.0469 13.5352C18.0742 13.4805 18.1426 13.4395 18.252 13.4121C18.3887 13.3574 18.4844 13.3164 18.5391 13.2891H18.6211C18.8945 13.2891 19.0996 13.3984 19.2363 13.6172C19.373 13.8086 19.4414 14 19.4414 14.1914C19.4414 14.4922 19.373 14.752 19.2363 14.9707C19.0996 15.1895 18.9355 15.3945 18.7441 15.5859C18.5801 15.75 18.3887 15.9141 18.1699 16.0781C17.9785 16.2422 17.8281 16.4199 17.7188 16.6113L13.6582 18.6621C13.5488 18.7988 13.4941 18.9082 13.4941 18.9902C13.4941 19.209 13.6035 19.5508 13.8223 20.0156C14.0684 20.4805 14.2598 20.8496 14.3965 21.123C14.4785 21.2871 14.6152 21.5879 14.8066 22.0254C14.998 22.4629 15.2031 22.9141 15.4219 23.3789C15.6406 23.8438 15.8457 24.2949 16.0371 24.7324C16.2559 25.1426 16.4062 25.4297 16.4883 25.5938V25.7168C16.4883 26.7012 15.9961 27.1934 15.0117 27.1934C14.7109 27.1934 14.3965 27.166 14.0684 27.1113C13.7402 27.0293 13.4941 26.8242 13.3301 26.4961L10.582 20.6309H10.2129C9.17383 21.4238 8.06641 22.2031 6.89062 22.9688C5.71484 23.7344 4.51172 24.3906 3.28125 24.9375C3.08984 25.9219 2.9668 26.9199 2.91211 27.9316C2.88477 28.9434 2.89844 29.9551 2.95312 30.9668C2.73438 31.2676 2.51562 31.5 2.29688 31.6641C2.07812 31.8008 1.77734 31.8691 1.39453 31.8691C1.01172 31.8691 0.724609 31.7871 0.533203 31.623C0.341797 31.4316 0.205078 31.2129 0.123047 30.9668C0.0410156 30.6934 0 30.4062 0 30.1055C0 29.8047 0 29.5312 0 29.2852ZM3.65039 21.3281C4.4707 21 5.26367 20.5625 6.0293 20.0156C6.82227 19.4688 7.57422 18.9629 8.28516 18.498C8.36719 18.4434 8.46289 18.3887 8.57227 18.334C8.70898 18.2793 8.83203 18.2109 8.94141 18.1289C9.05078 18.0469 9.1875 17.9512 9.35156 17.8418V17.5137L5.57812 6.76758L5.41406 6.60352C5.33203 6.76758 5.22266 7.23242 5.08594 7.99805C4.97656 8.76367 4.83984 9.76172 4.67578 10.9922C4.53906 12.1953 4.375 13.5898 4.18359 15.1758C4.01953 16.7617 3.8418 18.457 3.65039 20.2617V21.3281Z" fill="#EB1414"/>
<path d="M21.1641 25.5117C21.1641 23.4062 21.1914 21.3145 21.2461 19.2363C21.3281 17.1582 21.3691 15.0527 21.3691 12.9199C21.3691 11.6895 21.3008 10.459 21.1641 9.22852C21.0547 7.99805 21 6.76758 21 5.53711C21 5.1543 21.1094 4.82617 21.3281 4.55273C21.5742 4.2793 21.8887 4.14258 22.2715 4.14258C22.9277 4.14258 23.4199 4.2793 23.748 4.55273C24.0762 4.82617 24.3086 5.16797 24.4453 5.57812C24.582 5.98828 24.6504 6.45312 24.6504 6.97266C24.6504 7.49219 24.6504 7.99805 24.6504 8.49023C24.6504 8.59961 24.6504 8.87305 24.6504 9.31055C24.6777 9.74805 24.7051 10.2266 24.7324 10.7461C24.7598 11.2383 24.7734 11.7031 24.7734 12.1406C24.8008 12.5781 24.8145 12.8516 24.8145 12.9609V14.3145C24.8145 16.0918 24.7871 17.8555 24.7324 19.6055C24.6777 21.3555 24.6504 23.1328 24.6504 24.9375V26.6602C24.6504 26.7969 24.6641 26.9883 24.6914 27.2344C24.7461 27.4531 24.7871 27.5625 24.8145 27.5625H25.1426L34.8633 23.707C35.082 23.5156 35.2734 23.4199 35.4375 23.4199C35.6016 23.3926 35.793 23.3789 36.0117 23.3789C36.1484 23.3789 36.3262 23.3926 36.5449 23.4199C36.7637 23.4199 36.9688 23.4609 37.1602 23.543C37.3789 23.5977 37.5566 23.6934 37.6934 23.8301C37.8574 23.9395 37.9395 24.1172 37.9395 24.3633C37.9395 24.9922 37.5977 25.5391 36.9141 26.0039C36.0391 26.4688 35.1367 26.9062 34.207 27.3164C33.2773 27.6992 32.334 28.0137 31.377 28.2598L31.1719 28.4238C29.8594 28.7793 28.6289 29.2988 27.4805 29.9824C26.3594 30.666 25.1836 31.2949 23.9531 31.8691H23.584C22.8457 31.8691 22.2988 31.623 21.9434 31.1309C21.5879 30.6387 21.3555 30.0645 21.2461 29.4082C21.1367 28.7246 21.0957 28.0273 21.123 27.3164C21.1504 26.5781 21.1641 25.9766 21.1641 25.5117Z" fill="#EB1414"/>
<path d="M47.127 13.8633C47.0996 13.6445 47.0586 13.3711 47.0039 13.043C46.9766 12.6875 46.9355 12.3594 46.8809 12.0586C46.8535 11.7305 46.8262 11.457 46.7988 11.2383C46.7715 11.0195 46.7578 10.9102 46.7578 10.9102H46.4297L41.7539 12.3047C41.6172 12.5234 41.3848 12.6328 41.0566 12.6328C40.7559 12.6328 40.5234 12.6328 40.3594 12.6328C39.9766 12.6328 39.5801 12.4688 39.1699 12.1406C38.7871 11.7852 38.5957 11.4023 38.5957 10.9922C38.5957 10.6914 38.6914 10.4043 38.8828 10.1309C39.1016 9.83008 39.3613 9.625 39.6621 9.51562L46.2656 7.42383C46.3477 7.12305 46.498 6.82227 46.7168 6.52148C46.9629 6.19336 47.2773 6.0293 47.6602 6.0293C48.043 6.0293 48.3574 6.125 48.6035 6.31641C48.877 6.50781 49.1777 6.6582 49.5059 6.76758C49.752 6.74023 50.1621 6.6582 50.7363 6.52148C51.3105 6.38477 51.9121 6.24805 52.541 6.11133C53.1973 5.94727 53.8125 5.79688 54.3867 5.66016C54.9609 5.52344 55.3574 5.42773 55.5762 5.37305C55.9043 5.31836 56.1504 5.25 56.3145 5.16797C56.4785 5.08594 56.7383 5.04492 57.0938 5.04492C57.5586 5.04492 58.0371 5.18164 58.5293 5.45508C59.0215 5.72852 59.2676 6.13867 59.2676 6.68555C59.2676 7.04102 59.1445 7.35547 58.8984 7.62891C58.6523 7.875 58.3516 8.03906 57.9961 8.12109L50.2031 10.0898V10.459C50.2031 11.3066 50.2715 12.1406 50.4082 12.9609C50.5723 13.7812 50.627 14.6016 50.5723 15.4219L51.9668 28.0957V28.998C51.9668 29.3262 51.9531 29.668 51.9258 30.0234C51.9258 30.3516 51.8711 30.6523 51.7617 30.9258C51.6797 31.1992 51.5293 31.4316 51.3105 31.623C51.0918 31.7871 50.7637 31.8691 50.3262 31.8691C49.998 31.8691 49.6426 31.7324 49.2598 31.459C48.9043 31.1855 48.7129 30.8574 48.6855 30.4746L47.127 14.1914V13.8633Z" fill="#EB1414"/>
<path d="M59.8008 30.9668C59.5273 29.873 59.3223 28.8477 59.1855 27.8906C59.0488 26.9062 58.9531 25.8672 58.8984 24.7734C58.8711 24.1445 58.8711 23.6113 58.8984 23.1738C58.9258 22.709 58.8711 22.2031 58.7344 21.6562C58.707 21.5469 58.6387 21.4648 58.5293 21.4102C58.4473 21.3555 58.3516 21.2871 58.2422 21.2051C58.1602 21.123 58.0781 21.0273 57.9961 20.918C57.9141 20.7812 57.873 20.5762 57.873 20.3027C57.873 20.084 57.9141 19.8926 57.9961 19.7285C58.1055 19.5645 58.2012 19.4141 58.2832 19.2773C58.3926 19.1133 58.4883 18.9492 58.5703 18.7852C58.6797 18.5938 58.7344 18.375 58.7344 18.1289V17.5137C58.7344 17.2402 58.707 16.7754 58.6523 16.1191C58.5977 15.4629 58.543 14.7656 58.4883 14.0273C58.4336 13.2891 58.3789 12.5918 58.3242 11.9355C58.2969 11.2793 58.2695 10.8281 58.2422 10.582C58.2148 10.1172 58.0918 9.70703 57.873 9.35156C57.6543 8.99609 57.5449 8.58594 57.5449 8.12109C57.5449 7.24609 57.7227 6.63086 58.0781 6.27539C58.4336 5.91992 59.0625 5.74219 59.9648 5.74219C60.1562 5.74219 60.3066 5.82422 60.416 5.98828C60.5527 6.15234 60.7031 6.23438 60.8672 6.23438H61.0312C61.1133 6.20703 61.2363 6.17969 61.4004 6.15234C61.5645 6.09766 61.6738 6.07031 61.7285 6.07031C64.0254 5.08594 65.8164 4.32031 67.1016 3.77344C68.3867 3.22656 69.3574 2.83008 70.0137 2.58398C70.6699 2.33789 71.1074 2.20117 71.3262 2.17383C71.5723 2.14648 71.7773 2.17383 71.9414 2.25586C72.2695 2.31055 72.4883 2.41992 72.5977 2.58398C72.7344 2.7207 72.8027 2.93945 72.8027 3.24023C72.8027 3.51367 72.7617 3.78711 72.6797 4.06055C72.5977 4.33398 72.4062 4.53906 72.1055 4.67578L66.7324 7.25977L66.5684 7.42383L62.0566 9.35156C61.8926 9.40625 61.7969 9.54297 61.7695 9.76172C61.7422 9.98047 61.7285 10.1582 61.7285 10.2949C61.7285 10.5137 61.7559 10.9102 61.8105 11.4844C61.8652 12.0586 61.9199 12.6602 61.9746 13.2891C62.0293 13.8906 62.084 14.4375 62.1387 14.9297C62.2207 15.3945 62.2754 15.627 62.3027 15.627H62.3438C62.3438 15.627 62.3574 15.6133 62.3848 15.5859C62.6855 15.3672 63.1641 14.998 63.8203 14.4785C64.4766 13.9316 65.1465 13.3848 65.8301 12.8379C66.5137 12.291 67.1152 11.8125 67.6348 11.4023C68.1543 10.9648 68.4277 10.7461 68.4551 10.7461C68.7559 10.7461 69.0293 10.8965 69.2754 11.1973C69.5215 11.498 69.6445 11.8125 69.6445 12.1406C69.6445 12.4688 69.5762 12.8379 69.4395 13.248C69.3027 13.6582 69.084 13.9727 68.7832 14.1914L62.3848 19.8926C62.3848 19.8926 62.3848 19.9609 62.3848 20.0977C62.3848 20.2344 62.3711 20.3848 62.3438 20.5488C62.3438 20.7129 62.3438 20.8906 62.3438 21.082C62.3438 21.2461 62.3438 21.3828 62.3438 21.4922C62.3438 22.4766 62.4121 23.4609 62.5488 24.4453C62.6855 25.4023 62.7539 26.373 62.7539 27.3574H62.918C62.9453 27.3574 63.0684 27.248 63.2871 27.0293C63.5059 26.8105 63.6699 26.6328 63.7793 26.4961C63.834 26.4141 63.957 26.2363 64.1484 25.9629C64.3672 25.6895 64.7227 25.2383 65.2148 24.6094C65.707 23.9805 66.3633 23.1465 67.1836 22.1074C68.0039 21.0684 69.0566 19.7559 70.3418 18.1699C70.4512 18.0605 70.6016 17.8965 70.793 17.6777C71.0117 17.459 71.1484 17.3496 71.2031 17.3496C71.2852 17.2676 71.4492 17.2402 71.6953 17.2676C71.9688 17.2676 72.1602 17.2949 72.2695 17.3496C72.4062 17.4043 72.584 17.5547 72.8027 17.8008C73.0215 18.0469 73.1309 18.2793 73.1309 18.498C73.1309 18.8262 72.9531 19.2637 72.5977 19.8105C72.2695 20.3301 71.873 20.877 71.4082 21.4512C70.9434 22.0254 70.4785 22.5859 70.0137 23.1328C69.5488 23.6523 69.1934 24.0762 68.9473 24.4043C68.5645 25.0059 68.0996 25.7441 67.5527 26.6191C67.0332 27.4668 66.459 28.2871 65.8301 29.0801C65.2012 29.8457 64.5039 30.5156 63.7383 31.0898C63 31.6367 62.207 31.9102 61.3594 31.9102C60.9492 31.9102 60.6484 31.8418 60.457 31.7051C60.293 31.5684 60.0742 31.3223 59.8008 30.9668Z" fill="#EB1414"/>
<path d="M77.0273 22.3535C76.8633 21.998 76.7266 21.7109 76.6172 21.4922C76.5352 21.2734 76.4941 21.0137 76.4941 20.7129C76.4941 20.4668 76.5215 20.248 76.5762 20.0566C76.6582 19.8379 76.6992 19.6055 76.6992 19.3594C76.6992 18.7578 76.6719 18.1973 76.6172 17.6777C76.5898 17.1582 76.5488 16.584 76.4941 15.9551C76.4668 15.873 76.3711 15.8047 76.207 15.75C76.043 15.6953 75.8652 15.627 75.6738 15.5449C75.4824 15.4355 75.3047 15.2852 75.1406 15.0938C75.0039 14.9023 74.9355 14.6289 74.9355 14.2734C74.9355 13.9453 75.0039 13.6719 75.1406 13.4531C75.3047 13.207 75.4688 12.9883 75.6328 12.7969C75.7969 12.5781 75.9473 12.3594 76.084 12.1406C76.248 11.8945 76.3301 11.6074 76.3301 11.2793C76.3301 11.1426 76.3164 10.8965 76.2891 10.541C76.2617 10.1582 76.2344 9.76172 76.207 9.35156C76.207 8.94141 76.1934 8.55859 76.166 8.20312C76.166 7.82031 76.166 7.56055 76.166 7.42383V7.3418V7.25977C76.2754 7.01367 76.3574 6.80859 76.4121 6.64453C76.4941 6.48047 76.5762 6.35742 76.6582 6.27539C76.7402 6.19336 76.8496 6.13867 76.9863 6.11133C77.123 6.05664 77.3008 6.0293 77.5195 6.0293C78.0938 6.0293 78.5176 6.13867 78.791 6.35742C79.0645 6.57617 79.2559 6.83594 79.3652 7.13672C79.4746 7.41016 79.543 7.66992 79.5703 7.91602C79.5977 8.16211 79.666 8.29883 79.7754 8.32617L82.7285 5.74219H82.8926C83.8496 5.11328 84.8613 4.63477 85.9277 4.30664C86.9941 3.95117 88.1152 3.77344 89.291 3.77344C89.6465 3.77344 90.0703 3.81445 90.5625 3.89648C91.082 3.97852 91.5605 4.12891 91.998 4.34766C92.4629 4.53906 92.8457 4.79883 93.1465 5.12695C93.4746 5.45508 93.6387 5.86523 93.6387 6.35742C93.6387 6.9043 93.5703 7.46484 93.4336 8.03906C93.2969 8.61328 93.1055 9.1875 92.8594 9.76172C92.6406 10.3086 92.3672 10.8418 92.0391 11.3613C91.7383 11.8535 91.4102 12.2773 91.0547 12.6328C90.918 12.9336 90.043 13.6992 88.4297 14.9297C86.8164 16.1602 84.4102 17.9922 81.2109 20.4258L100.898 21.6562C101.172 21.6836 101.541 21.7109 102.006 21.7383C102.498 21.7383 102.963 21.7793 103.4 21.8613C103.865 21.9434 104.262 22.1074 104.59 22.3535C104.918 22.5723 105.082 22.9141 105.082 23.3789C105.082 23.625 105.041 23.8301 104.959 23.9941C104.904 24.1309 104.822 24.2539 104.713 24.3633C104.631 24.4453 104.521 24.5273 104.385 24.6094C104.275 24.6914 104.166 24.8008 104.057 24.9375H103.359H102.662C102.115 24.8828 101.541 24.8145 100.939 24.7324C100.365 24.6504 99.6816 24.5547 98.8887 24.4453C98.123 24.3359 97.2207 24.2266 96.1816 24.1172C95.1426 24.0078 93.8984 23.9121 92.4492 23.8301C91 23.748 89.3047 23.6797 87.3633 23.625C85.4492 23.5703 83.2207 23.543 80.6777 23.543C80.6504 23.543 80.6094 23.584 80.5547 23.666C80.5273 23.748 80.5137 23.8164 80.5137 23.8711C80.5137 24.9102 80.5957 25.9355 80.7598 26.9473C80.9512 27.9316 81.0469 28.916 81.0469 29.9004C81.0469 30.0918 81.0195 30.3105 80.9648 30.5566C80.9375 30.7754 80.8691 30.9941 80.7598 31.2129C80.6504 31.4043 80.5137 31.5684 80.3496 31.7051C80.1855 31.8418 79.9805 31.9102 79.7344 31.9102C79.5703 31.9102 79.3789 31.8828 79.1602 31.8281C78.9414 31.7461 78.7227 31.6367 78.5039 31.5C78.3125 31.3633 78.1348 31.2129 77.9707 31.0488C77.8066 30.8848 77.7109 30.6934 77.6836 30.4746L77.0273 22.3535ZM79.7754 13.2891C79.7754 13.9727 79.7891 14.6152 79.8164 15.2168C79.8438 15.8184 79.8848 16.4746 79.9395 17.1855H80.0625C80.0898 17.1855 80.1582 17.1582 80.2676 17.1035C80.377 17.0488 80.6504 16.8848 81.0879 16.6113C81.5254 16.3105 82.1953 15.8594 83.0977 15.2578C84 14.6289 85.2715 13.7539 86.9121 12.6328C87.2402 12.4414 87.5957 12.1133 87.9785 11.6484C88.3613 11.1836 88.7168 10.6777 89.0449 10.1309C89.373 9.58398 89.6465 9.05078 89.8652 8.53125C90.084 7.98438 90.1934 7.5332 90.1934 7.17773C90.1934 6.9043 90.0566 6.76758 89.7832 6.76758C89.5371 6.76758 89.3184 6.76758 89.127 6.76758C88.7168 6.76758 88.252 6.83594 87.7324 6.97266C87.2129 7.10938 86.584 7.38281 85.8457 7.79297C85.1348 8.20312 84.2734 8.79102 83.2617 9.55664C82.2773 10.3223 81.1152 11.3477 79.7754 12.6328V13.2891Z" fill="#EB1414"/>
<path d="M106.354 26.7422C106.354 25.0742 106.381 23.4062 106.436 21.7383C106.518 20.043 106.6 18.3613 106.682 16.6934C106.764 14.998 106.818 13.3164 106.846 11.6484C106.9 9.95312 106.9 8.27148 106.846 6.60352C106.928 6.30273 107.078 6.08398 107.297 5.94727C107.516 5.7832 107.775 5.70117 108.076 5.70117C108.65 5.70117 109.088 5.81055 109.389 6.0293C109.689 6.2207 109.908 6.49414 110.045 6.84961C110.182 7.20508 110.264 7.60156 110.291 8.03906C110.318 8.47656 110.346 8.91406 110.373 9.35156C110.701 9.95312 111.084 10.541 111.521 11.1152C111.986 11.6621 112.396 12.2227 112.752 12.7969C112.752 12.8242 112.766 12.8926 112.793 13.002C112.848 13.084 112.889 13.125 112.916 13.125C113.08 13.3711 113.285 13.6992 113.531 14.1094C113.805 14.4922 114.064 14.875 114.311 15.2578C114.557 15.6133 114.762 15.9277 114.926 16.2012C115.117 16.4746 115.213 16.6113 115.213 16.6113L115.377 16.8164L117.756 20.2617C117.865 20.3711 117.961 20.4258 118.043 20.4258H118.125C117.77 17.5273 117.482 14.5742 117.264 11.5664C117.045 8.53125 116.936 5.53711 116.936 2.58398V0.533203C117.154 0.177734 117.523 0 118.043 0C118.562 0 118.945 0.123047 119.191 0.369141C119.438 0.615234 119.602 0.929688 119.684 1.3125C119.766 1.66797 119.807 2.06445 119.807 2.50195C119.807 2.91211 119.82 3.29492 119.848 3.65039C119.848 3.67773 119.861 3.73242 119.889 3.81445C119.916 3.86914 119.943 4.01953 119.971 4.26562C120.025 4.48438 120.066 4.83984 120.094 5.33203C120.148 5.79688 120.203 6.45312 120.258 7.30078C120.34 8.14844 120.408 9.21484 120.463 10.5C120.545 11.7852 120.641 13.3574 120.75 15.2168V15.9551L122.145 25.1016C122.172 25.3203 122.281 25.6621 122.473 26.127C122.691 26.5645 122.801 26.9062 122.801 27.1523C122.801 27.7266 122.637 28.1914 122.309 28.5469C121.98 28.9023 121.516 29.0801 120.914 29.0801C120.832 29.0801 120.723 29.0527 120.586 28.998C120.449 28.916 120.312 28.834 120.176 28.752C120.039 28.6699 119.902 28.5879 119.766 28.5059C119.656 28.3965 119.574 28.3145 119.52 28.2598L112.916 18.8672C112.889 18.8672 112.861 18.8262 112.834 18.7441C112.807 18.6348 112.779 18.5527 112.752 18.498C112.588 18.252 112.369 17.9512 112.096 17.5957C111.822 17.2129 111.562 16.8438 111.316 16.4883C111.07 16.1055 110.852 15.7773 110.66 15.5039C110.469 15.2305 110.373 15.0801 110.373 15.0527L110.168 14.8887C110.031 17.4863 109.922 20.1113 109.84 22.7637C109.758 25.3887 109.758 28.0137 109.84 30.6387C109.785 30.9668 109.607 31.2539 109.307 31.5C109.033 31.7461 108.746 31.8691 108.445 31.8691C107.898 31.8691 107.461 31.7324 107.133 31.459C106.832 31.1582 106.572 30.7754 106.354 30.3105V26.7422Z" fill="#EB1414"/>
<path d="M124.688 29.2852C124.688 27.6445 124.797 26.0176 125.016 24.4043C125.234 22.791 125.426 21.1777 125.59 19.5645C125.59 19.4824 125.604 19.3047 125.631 19.0312C125.658 18.7305 125.686 18.416 125.713 18.0879C125.768 17.7598 125.809 17.459 125.836 17.1855C125.891 16.8848 125.918 16.6934 125.918 16.6113V16.4473L127.641 3.65039C127.586 3.10352 127.668 2.625 127.887 2.21484C128.133 1.77734 128.57 1.55859 129.199 1.55859C129.883 1.47656 130.443 1.57227 130.881 1.8457C131.346 2.0918 131.729 2.41992 132.029 2.83008C132.33 3.24023 132.576 3.69141 132.768 4.18359C132.959 4.67578 133.164 5.12695 133.383 5.53711C133.52 5.91992 133.684 6.37109 133.875 6.89062C134.094 7.41016 134.34 8.06641 134.613 8.85938C134.914 9.65234 135.256 10.623 135.639 11.7715C136.049 12.9199 136.514 14.3145 137.033 15.9551L137.197 16.1191C137.389 16.0098 137.744 15.832 138.264 15.5859C138.811 15.3398 139.371 15.0801 139.945 14.8066C140.547 14.5332 141.107 14.2734 141.627 14.0273C142.146 13.7812 142.516 13.6172 142.734 13.5352C142.762 13.4805 142.83 13.4395 142.939 13.4121C143.076 13.3574 143.172 13.3164 143.227 13.2891H143.309C143.582 13.2891 143.787 13.3984 143.924 13.6172C144.061 13.8086 144.129 14 144.129 14.1914C144.129 14.4922 144.061 14.752 143.924 14.9707C143.787 15.1895 143.623 15.3945 143.432 15.5859C143.268 15.75 143.076 15.9141 142.857 16.0781C142.666 16.2422 142.516 16.4199 142.406 16.6113L138.346 18.6621C138.236 18.7988 138.182 18.9082 138.182 18.9902C138.182 19.209 138.291 19.5508 138.51 20.0156C138.756 20.4805 138.947 20.8496 139.084 21.123C139.166 21.2871 139.303 21.5879 139.494 22.0254C139.686 22.4629 139.891 22.9141 140.109 23.3789C140.328 23.8438 140.533 24.2949 140.725 24.7324C140.943 25.1426 141.094 25.4297 141.176 25.5938V25.7168C141.176 26.7012 140.684 27.1934 139.699 27.1934C139.398 27.1934 139.084 27.166 138.756 27.1113C138.428 27.0293 138.182 26.8242 138.018 26.4961L135.27 20.6309H134.9C133.861 21.4238 132.754 22.2031 131.578 22.9688C130.402 23.7344 129.199 24.3906 127.969 24.9375C127.777 25.9219 127.654 26.9199 127.6 27.9316C127.572 28.9434 127.586 29.9551 127.641 30.9668C127.422 31.2676 127.203 31.5 126.984 31.6641C126.766 31.8008 126.465 31.8691 126.082 31.8691C125.699 31.8691 125.412 31.7871 125.221 31.623C125.029 31.4316 124.893 31.2129 124.811 30.9668C124.729 30.6934 124.688 30.4062 124.688 30.1055C124.688 29.8047 124.688 29.5312 124.688 29.2852ZM128.338 21.3281C129.158 21 129.951 20.5625 130.717 20.0156C131.51 19.4688 132.262 18.9629 132.973 18.498C133.055 18.4434 133.15 18.3887 133.26 18.334C133.396 18.2793 133.52 18.2109 133.629 18.1289C133.738 18.0469 133.875 17.9512 134.039 17.8418V17.5137L130.266 6.76758L130.102 6.60352C130.02 6.76758 129.91 7.23242 129.773 7.99805C129.664 8.76367 129.527 9.76172 129.363 10.9922C129.227 12.1953 129.062 13.5898 128.871 15.1758C128.707 16.7617 128.529 18.457 128.338 20.2617V21.3281Z" fill="#EB1414"/>
<path d="M153.48 13.8633C153.453 13.6445 153.412 13.3711 153.357 13.043C153.33 12.6875 153.289 12.3594 153.234 12.0586C153.207 11.7305 153.18 11.457 153.152 11.2383C153.125 11.0195 153.111 10.9102 153.111 10.9102H152.783L148.107 12.3047C147.971 12.5234 147.738 12.6328 147.41 12.6328C147.109 12.6328 146.877 12.6328 146.713 12.6328C146.33 12.6328 145.934 12.4688 145.523 12.1406C145.141 11.7852 144.949 11.4023 144.949 10.9922C144.949 10.6914 145.045 10.4043 145.236 10.1309C145.455 9.83008 145.715 9.625 146.016 9.51562L152.619 7.42383C152.701 7.12305 152.852 6.82227 153.07 6.52148C153.316 6.19336 153.631 6.0293 154.014 6.0293C154.396 6.0293 154.711 6.125 154.957 6.31641C155.23 6.50781 155.531 6.6582 155.859 6.76758C156.105 6.74023 156.516 6.6582 157.09 6.52148C157.664 6.38477 158.266 6.24805 158.895 6.11133C159.551 5.94727 160.166 5.79688 160.74 5.66016C161.314 5.52344 161.711 5.42773 161.93 5.37305C162.258 5.31836 162.504 5.25 162.668 5.16797C162.832 5.08594 163.092 5.04492 163.447 5.04492C163.912 5.04492 164.391 5.18164 164.883 5.45508C165.375 5.72852 165.621 6.13867 165.621 6.68555C165.621 7.04102 165.498 7.35547 165.252 7.62891C165.006 7.875 164.705 8.03906 164.35 8.12109L156.557 10.0898V10.459C156.557 11.3066 156.625 12.1406 156.762 12.9609C156.926 13.7812 156.98 14.6016 156.926 15.4219L158.32 28.0957V28.998C158.32 29.3262 158.307 29.668 158.279 30.0234C158.279 30.3516 158.225 30.6523 158.115 30.9258C158.033 31.1992 157.883 31.4316 157.664 31.623C157.445 31.7871 157.117 31.8691 156.68 31.8691C156.352 31.8691 155.996 31.7324 155.613 31.459C155.258 31.1855 155.066 30.8574 155.039 30.4746L153.48 14.1914V13.8633Z" fill="#EB1414"/>
<path d="M163.898 8.6543C164.117 8.35352 164.309 8.16211 164.473 8.08008C164.664 7.9707 164.924 7.91602 165.252 7.91602C165.689 7.91602 166.1 8.03906 166.482 8.28516C166.893 8.53125 167.125 8.88672 167.18 9.35156C167.289 10.1172 167.344 10.8965 167.344 11.6895C167.371 12.4551 167.371 13.2344 167.344 14.0273C167.344 14.793 167.33 15.5723 167.303 16.3652C167.303 17.1309 167.33 17.8965 167.385 18.6621C167.494 20.5215 167.658 22.4492 167.877 24.4453C168.123 26.4414 168.246 28.3691 168.246 30.2285C168.246 30.7754 168.137 31.1855 167.918 31.459C167.699 31.7324 167.275 31.8691 166.646 31.8691C166.127 31.8691 165.73 31.6914 165.457 31.3359C165.184 30.9805 164.979 30.5566 164.842 30.0645C164.732 29.5723 164.664 29.0801 164.637 28.5879C164.609 28.0684 164.596 27.6582 164.596 27.3574C164.596 27.1387 164.568 26.6875 164.514 26.0039C164.486 25.293 164.445 24.4727 164.391 23.543C164.363 22.5859 164.322 21.5879 164.268 20.5488C164.213 19.4824 164.158 18.4844 164.104 17.5547C164.049 16.5977 163.994 15.7773 163.939 15.0938C163.912 14.3828 163.898 13.918 163.898 13.6992V11.1562V8.6543Z" fill="#EB1414"/>
<path d="M170.994 12.3047C170.693 12.0859 170.406 11.7305 170.133 11.2383C169.859 10.7461 169.723 10.3086 169.723 9.92578C169.723 9.51562 169.887 9.20117 170.215 8.98242C170.543 8.76367 170.885 8.6543 171.24 8.6543C171.678 8.6543 172.047 8.73633 172.348 8.90039C172.648 9.06445 172.936 9.33789 173.209 9.7207C173.51 10.1035 173.838 10.623 174.193 11.2793C174.576 11.9355 175.055 12.7695 175.629 13.7812C176.203 14.7656 176.928 15.9551 177.803 17.3496C178.678 18.7168 179.758 20.3164 181.043 22.1484C181.125 22.3672 181.275 22.6406 181.494 22.9688C181.713 23.2695 181.85 23.4609 181.904 23.543L182.068 23.2148L184.324 14.7246L184.488 14.3555L186.088 8.6543C186.006 8.16211 186.115 7.72461 186.416 7.3418C186.717 6.95898 187.1 6.76758 187.564 6.76758C188.029 6.76758 188.494 6.93164 188.959 7.25977C189.451 7.56055 189.697 7.9707 189.697 8.49023V8.6543L185.021 26.168C185.021 26.2227 184.994 26.4004 184.939 26.7012C184.885 26.9746 184.83 27.2891 184.775 27.6445C184.721 27.9727 184.666 28.3145 184.611 28.6699C184.557 28.998 184.516 29.2578 184.488 29.4492C184.461 29.6953 184.434 29.9688 184.406 30.2695C184.406 30.543 184.352 30.8027 184.242 31.0488C184.16 31.2676 184.023 31.459 183.832 31.623C183.641 31.7871 183.354 31.8691 182.971 31.8691C182.314 31.8691 181.822 31.6914 181.494 31.3359C181.166 30.9805 180.92 30.5566 180.756 30.0645C180.592 29.5449 180.455 29.0117 180.346 28.4648C180.236 27.8906 180.059 27.4121 179.812 27.0293L170.994 12.3047Z" fill="#EB1414"/>
<path d="M193.881 30.9668C193.607 29.873 193.402 28.8477 193.266 27.8906C193.129 26.9062 193.033 25.8672 192.979 24.7734C192.951 24.1445 192.951 23.6113 192.979 23.1738C193.006 22.709 192.951 22.2031 192.814 21.6562C192.787 21.5469 192.719 21.4648 192.609 21.4102C192.527 21.3555 192.432 21.2871 192.322 21.2051C192.24 21.123 192.158 21.0273 192.076 20.918C191.994 20.7812 191.953 20.5762 191.953 20.3027C191.953 20.084 191.994 19.8926 192.076 19.7285C192.186 19.5645 192.281 19.4141 192.363 19.2773C192.473 19.1133 192.568 18.9492 192.65 18.7852C192.76 18.5938 192.814 18.375 192.814 18.1289V17.5137C192.814 17.2402 192.787 16.7754 192.732 16.1191C192.678 15.4629 192.623 14.7656 192.568 14.0273C192.514 13.2891 192.459 12.5918 192.404 11.9355C192.377 11.2793 192.35 10.8281 192.322 10.582C192.295 10.1172 192.172 9.70703 191.953 9.35156C191.734 8.99609 191.625 8.58594 191.625 8.12109C191.625 7.24609 191.803 6.63086 192.158 6.27539C192.514 5.91992 193.143 5.74219 194.045 5.74219C194.236 5.74219 194.387 5.82422 194.496 5.98828C194.633 6.15234 194.783 6.23438 194.947 6.23438H195.111C195.193 6.20703 195.316 6.17969 195.48 6.15234C195.645 6.09766 195.754 6.07031 195.809 6.07031C198.105 5.08594 199.896 4.32031 201.182 3.77344C202.467 3.22656 203.438 2.83008 204.094 2.58398C204.75 2.33789 205.188 2.20117 205.406 2.17383C205.652 2.14648 205.857 2.17383 206.021 2.25586C206.35 2.31055 206.568 2.41992 206.678 2.58398C206.814 2.7207 206.883 2.93945 206.883 3.24023C206.883 3.51367 206.842 3.78711 206.76 4.06055C206.678 4.33398 206.486 4.53906 206.186 4.67578L200.812 7.25977L200.648 7.42383L196.137 9.35156C195.973 9.40625 195.877 9.54297 195.85 9.76172C195.822 9.98047 195.809 10.1582 195.809 10.2949C195.809 10.5137 195.836 10.9102 195.891 11.4844C195.945 12.0586 196 12.6602 196.055 13.2891C196.109 13.8906 196.164 14.4375 196.219 14.9297C196.301 15.3945 196.355 15.627 196.383 15.627H196.424C196.424 15.627 196.438 15.6133 196.465 15.5859C196.766 15.3672 197.244 14.998 197.9 14.4785C198.557 13.9316 199.227 13.3848 199.91 12.8379C200.594 12.291 201.195 11.8125 201.715 11.4023C202.234 10.9648 202.508 10.7461 202.535 10.7461C202.836 10.7461 203.109 10.8965 203.355 11.1973C203.602 11.498 203.725 11.8125 203.725 12.1406C203.725 12.4688 203.656 12.8379 203.52 13.248C203.383 13.6582 203.164 13.9727 202.863 14.1914L196.465 19.8926C196.465 19.8926 196.465 19.9609 196.465 20.0977C196.465 20.2344 196.451 20.3848 196.424 20.5488C196.424 20.7129 196.424 20.8906 196.424 21.082C196.424 21.2461 196.424 21.3828 196.424 21.4922C196.424 22.4766 196.492 23.4609 196.629 24.4453C196.766 25.4023 196.834 26.373 196.834 27.3574H196.998C197.025 27.3574 197.148 27.248 197.367 27.0293C197.586 26.8105 197.75 26.6328 197.859 26.4961C197.914 26.4141 198.037 26.2363 198.229 25.9629C198.447 25.6895 198.803 25.2383 199.295 24.6094C199.787 23.9805 200.443 23.1465 201.264 22.1074C202.084 21.0684 203.137 19.7559 204.422 18.1699C204.531 18.0605 204.682 17.8965 204.873 17.6777C205.092 17.459 205.229 17.3496 205.283 17.3496C205.365 17.2676 205.529 17.2402 205.775 17.2676C206.049 17.2676 206.24 17.2949 206.35 17.3496C206.486 17.4043 206.664 17.5547 206.883 17.8008C207.102 18.0469 207.211 18.2793 207.211 18.498C207.211 18.8262 207.033 19.2637 206.678 19.8105C206.35 20.3301 205.953 20.877 205.488 21.4512C205.023 22.0254 204.559 22.5859 204.094 23.1328C203.629 23.6523 203.273 24.0762 203.027 24.4043C202.645 25.0059 202.18 25.7441 201.633 26.6191C201.113 27.4668 200.539 28.2871 199.91 29.0801C199.281 29.8457 198.584 30.5156 197.818 31.0898C197.08 31.6367 196.287 31.9102 195.439 31.9102C195.029 31.9102 194.729 31.8418 194.537 31.7051C194.373 31.5684 194.154 31.3223 193.881 30.9668Z" fill="#EB1414"/>
<path d="M208.893 30.3105C208.893 29.9277 209.029 29.5723 209.303 29.2441C209.604 28.916 209.945 28.752 210.328 28.752C210.793 28.752 211.162 28.875 211.436 29.1211C211.736 29.3672 212.023 29.6406 212.297 29.9414V30.0645C212.297 30.5293 212.133 30.9531 211.805 31.3359C211.504 31.6914 211.094 31.8691 210.574 31.8691C210.219 31.8691 209.85 31.7051 209.467 31.377C209.084 31.0488 208.893 30.6934 208.893 30.3105Z" fill="#EB1414"/>
<path d="M214.594 25.5117C214.594 23.4062 214.621 21.3145 214.676 19.2363C214.758 17.1582 214.799 15.0527 214.799 12.9199C214.799 11.6895 214.73 10.459 214.594 9.22852C214.484 7.99805 214.43 6.76758 214.43 5.53711C214.43 5.1543 214.539 4.82617 214.758 4.55273C215.004 4.2793 215.318 4.14258 215.701 4.14258C216.357 4.14258 216.85 4.2793 217.178 4.55273C217.506 4.82617 217.738 5.16797 217.875 5.57812C218.012 5.98828 218.08 6.45312 218.08 6.97266C218.08 7.49219 218.08 7.99805 218.08 8.49023C218.08 8.59961 218.08 8.87305 218.08 9.31055C218.107 9.74805 218.135 10.2266 218.162 10.7461C218.189 11.2383 218.203 11.7031 218.203 12.1406C218.23 12.5781 218.244 12.8516 218.244 12.9609V14.3145C218.244 16.0918 218.217 17.8555 218.162 19.6055C218.107 21.3555 218.08 23.1328 218.08 24.9375V26.6602C218.08 26.7969 218.094 26.9883 218.121 27.2344C218.176 27.4531 218.217 27.5625 218.244 27.5625H218.572L228.293 23.707C228.512 23.5156 228.703 23.4199 228.867 23.4199C229.031 23.3926 229.223 23.3789 229.441 23.3789C229.578 23.3789 229.756 23.3926 229.975 23.4199C230.193 23.4199 230.398 23.4609 230.59 23.543C230.809 23.5977 230.986 23.6934 231.123 23.8301C231.287 23.9395 231.369 24.1172 231.369 24.3633C231.369 24.9922 231.027 25.5391 230.344 26.0039C229.469 26.4688 228.566 26.9062 227.637 27.3164C226.707 27.6992 225.764 28.0137 224.807 28.2598L224.602 28.4238C223.289 28.7793 222.059 29.2988 220.91 29.9824C219.789 30.666 218.613 31.2949 217.383 31.8691H217.014C216.275 31.8691 215.729 31.623 215.373 31.1309C215.018 30.6387 214.785 30.0645 214.676 29.4082C214.566 28.7246 214.525 28.0273 214.553 27.3164C214.58 26.5781 214.594 25.9766 214.594 25.5117Z" fill="#EB1414"/>
<path d="M233.338 12.3047C233.037 12.0859 232.75 11.7305 232.477 11.2383C232.203 10.7461 232.066 10.3086 232.066 9.92578C232.066 9.51562 232.23 9.20117 232.559 8.98242C232.887 8.76367 233.229 8.6543 233.584 8.6543C234.021 8.6543 234.391 8.73633 234.691 8.90039C234.992 9.06445 235.279 9.33789 235.553 9.7207C235.854 10.1035 236.182 10.623 236.537 11.2793C236.92 11.9355 237.398 12.7695 237.973 13.7812C238.547 14.7656 239.271 15.9551 240.146 17.3496C241.021 18.7168 242.102 20.3164 243.387 22.1484C243.469 22.3672 243.619 22.6406 243.838 22.9688C244.057 23.2695 244.193 23.4609 244.248 23.543L244.412 23.2148L246.668 14.7246L246.832 14.3555L248.432 8.6543C248.35 8.16211 248.459 7.72461 248.76 7.3418C249.061 6.95898 249.443 6.76758 249.908 6.76758C250.373 6.76758 250.838 6.93164 251.303 7.25977C251.795 7.56055 252.041 7.9707 252.041 8.49023V8.6543L247.365 26.168C247.365 26.2227 247.338 26.4004 247.283 26.7012C247.229 26.9746 247.174 27.2891 247.119 27.6445C247.064 27.9727 247.01 28.3145 246.955 28.6699C246.9 28.998 246.859 29.2578 246.832 29.4492C246.805 29.6953 246.777 29.9688 246.75 30.2695C246.75 30.543 246.695 30.8027 246.586 31.0488C246.504 31.2676 246.367 31.459 246.176 31.623C245.984 31.7871 245.697 31.8691 245.314 31.8691C244.658 31.8691 244.166 31.6914 243.838 31.3359C243.51 30.9805 243.264 30.5566 243.1 30.0645C242.936 29.5449 242.799 29.0117 242.689 28.4648C242.58 27.8906 242.402 27.4121 242.156 27.0293L233.338 12.3047Z" fill="#EB1414"/>
</svg>
